<?xml version="1.0" standalone="no"?>
<!DOCTYPE svg PUBLIC "-//W3C//DTD SVG 20010904//EN"
 "http://www.w3.org/TR/2001/REC-SVG-20010904/DTD/svg10.dtd">
<svg version="1.0" xmlns="http://www.w3.org/2000/svg"
 width="512.000000pt" height="512.000000pt" viewBox="0 0 512.000000 512.000000"
 preserveAspectRatio="xMidYMid meet">
<metadata>
Created by potrace 1.14, written by Peter Selinger 2001-2017
</metadata>
<g transform="translate(0.000000,512.000000) scale(0.100000,-0.100000)"
fill="#000000" stroke="none">
<path d="M3900 5089 c-58 -16 -114 -31 -125 -33 -11 -3 -78 -21 -150 -40 -182
-50 -356 -97 -375 -102 -8 -2 -64 -17 -125 -33 -60 -16 -272 -72 -470 -125
-198 -53 -376 -101 -395 -106 -19 -6 -134 -37 -255 -69 -121 -33 -305 -82
-410 -110 -104 -28 -266 -71 -360 -96 -93 -25 -339 -91 -545 -146 -206 -55
-382 -102 -390 -104 -101 -25 -210 -61 -234 -78 -32 -23 -56 -72 -56 -116 0
-16 12 -73 26 -126 l25 -96 2 -1662 2 -1662 23 -33 c50 -70 -1 -66 887 -67
440 -1 812 3 827 8 15 5 31 21 38 38 l12 29 99 0 c95 0 99 -1 104 -23 13 -52
0 -51 707 -52 l657 0 28 -26 c81 -75 195 -145 313 -191 198 -78 447 -86 660
-22 336 102 614 407 685 751 10 52 -2 89 -34 103 l-29 12 1 100 c0 95 1 100
24 109 41 15 49 51 30 127 -10 37 -19 76 -22 87 -11 45 -95 204 -141 265 -130
172 -320 309 -511 368 -34 10 -53 22 -53 32 0 8 -2 339 -3 735 -2 795 2 749
-64 792 -26 17 -117 18 -1557 23 l-1529 5 234 63 c129 34 394 105 589 158 195
52 362 97 370 99 8 2 134 35 280 74 146 39 351 94 455 122 105 28 213 57 240
65 72 20 427 115 445 119 83 17 397 109 415 121 13 9 33 34 44 57 24 50 23 54
-49 322 -76 285 -79 293 -110 324 -27 26 -69 42 -109 40 -9 0 -63 -14 -121
-30z"/>
</g>
</svg>
