<?xml version="1.0" standalone="no"?>
<!DOCTYPE svg PUBLIC "-//W3C//DTD SVG 20010904//EN"
 "http://www.w3.org/TR/2001/REC-SVG-20010904/DTD/svg10.dtd">
<svg version="1.0" xmlns="http://www.w3.org/2000/svg"
 width="512.000000pt" height="512.000000pt" viewBox="0 0 512.000000 512.000000"
 preserveAspectRatio="xMidYMid meet">
<metadata>
Created by potrace 1.14, written by Peter Selinger 2001-2017
</metadata>
<g transform="translate(0.000000,512.000000) scale(0.100000,-0.100000)"
fill="#000000" stroke="none">
<path d="M1859 4576 c-2 -2 -35 -6 -74 -10 -287 -26 -616 -147 -879 -321 -493
-327 -809 -834 -891 -1430 -14 -100 -14 -426 0 -525 93 -664 513 -1248 1110
-1540 234 -114 440 -175 682 -200 94 -10 1595 -14 1693 -5 103 10 247 39 310
62 8 3 20 7 27 9 30 6 165 72 235 115 104 64 152 101 276 216 160 150 216 188
312 215 19 5 127 11 240 13 113 2 208 4 213 4 4 1 7 110 7 244 l0 242 -128 -2
c-307 -4 -379 -10 -497 -44 -135 -38 -293 -141 -454 -293 -35 -34 -73 -70 -85
-81 -119 -113 -346 -209 -509 -214 -38 -1 -77 -4 -88 -6 -10 -2 -19 0 -19 6 0
5 4 9 8 9 4 0 46 39 92 86 47 47 92 93 101 102 25 25 169 223 207 284 137 219
246 533 279 800 10 79 10 401 1 489 -15 136 -60 319 -115 464 -230 610 -726
1064 -1358 1243 -67 19 -123 33 -155 38 -8 1 -33 5 -55 8 -114 18 -184 23
-326 24 -86 1 -158 0 -160 -2z"/>
</g>
</svg>
